REM DIRINDEX 1\2\3,1\2\4,1\2\5,1\2\6
REM DIRNAME folder01,folder02,folder03,folder04,folder05,folder06
TITLE ""
FILE "029 029.mp3" MP3
  TRACK 01 AUDIO
    TITLE "0:"
    INDEX 01 00:00:00
  TRACK 02 AUDIO
    TITLE "3:cjc157_1084"
    INDEX 01 00:00:11
  TRACK 03 AUDIO
    TITLE "0:"
    INDEX 01 00:01:60
  TRACK 04 AUDIO
    TITLE "4:cjc157_1085"
    INDEX 01 00:02:34
  TRACK 05 AUDIO
    TITLE "0:"
    INDEX 01 00:03:35
  TRACK 06 AUDIO
    TITLE "5:cjc157_1086"
    INDEX 01 00:04:07
  TRACK 07 AUDIO
    TITLE "0:"
    INDEX 01 00:08:19
  TRACK 08 AUDIO
    TITLE "3:cjc157_1087"
    INDEX 01 00:08:68
  TRACK 09 AUDIO
    TITLE "0:"
    INDEX 01 00:10:39
  TRACK 10 AUDIO
    TITLE "4:cjc157_1088"
    INDEX 01 00:11:11
  TRACK 11 AUDIO
    TITLE "0:"
    INDEX 01 00:12:22
  TRACK 12 AUDIO
    TITLE "5:cjc157_1089"
    INDEX 01 00:12:69
  TRACK 13 AUDIO
    TITLE "0:"
    INDEX 01 00:14:74
  TRACK 14 AUDIO
    TITLE "5:cjc157_1090"
    INDEX 01 00:15:42
  TRACK 15 AUDIO
    TITLE "0:"
    INDEX 01 00:18:62
  TRACK 16 AUDIO
    TITLE "3:cjc157_1091"
    INDEX 01 00:19:32
  TRACK 17 AUDIO
    TITLE "0:"
    INDEX 01 00:21:00
  TRACK 18 AUDIO
    TITLE "4:cjc157_1092"
    INDEX 01 00:21:43
  TRACK 19 AUDIO
    TITLE "0:"
    INDEX 01 00:22:52
  TRACK 20 AUDIO
    TITLE "5:cjc157_1093"
    INDEX 01 00:23:24
  TRACK 21 AUDIO
    TITLE "0:"
    INDEX 01 00:26:26
  TRACK 22 AUDIO
    TITLE "5:cjc157_1094"
    INDEX 01 00:26:71
  TRACK 23 AUDIO
    TITLE "0:"
    INDEX 01 00:28:25
  TRACK 24 AUDIO
    TITLE "3:cjc157_1095"
    INDEX 01 00:28:68
  TRACK 25 AUDIO
    TITLE "0:"
    INDEX 01 00:30:22
  TRACK 26 AUDIO
    TITLE "4:cjc157_1096"
    INDEX 01 00:30:63
  TRACK 27 AUDIO
    TITLE "0:"
    INDEX 01 00:32:00
  TRACK 28 AUDIO
    TITLE "5:cjc157_1097"
    INDEX 01 00:32:45
  TRACK 29 AUDIO
    TITLE "0:"
    INDEX 01 00:36:68
  TRACK 30 AUDIO
    TITLE "5:cjc157_1098"
    INDEX 01 00:37:38
  TRACK 31 AUDIO
    TITLE "0:"
    INDEX 01 00:40:46
  TRACK 32 AUDIO
    TITLE "3:cjc157_1099"
    INDEX 01 00:41:14
  TRACK 33 AUDIO
    TITLE "0:"
    INDEX 01 00:42:63
  TRACK 34 AUDIO
    TITLE "4:cjc157_1100"
    INDEX 01 00:43:33
  TRACK 35 AUDIO
    TITLE "0:"
    INDEX 01 00:44:46
  TRACK 36 AUDIO
    TITLE "5:cjc157_1101"
    INDEX 01 00:45:16
  TRACK 37 AUDIO
    TITLE "0:"
    INDEX 01 00:47:74
  TRACK 38 AUDIO
    TITLE "5:cjc157_1102"
    INDEX 01 00:48:42
  TRACK 39 AUDIO
    TITLE "0:"
    INDEX 01 00:51:32
  TRACK 40 AUDIO
    TITLE "5:cjc157_1103"
    INDEX 01 00:52:00
  TRACK 41 AUDIO
    TITLE "0:"
    INDEX 01 00:53:49
  TRACK 42 AUDIO
    TITLE "3:cjc157_1104"
    INDEX 01 00:54:19
  TRACK 43 AUDIO
    TITLE "0:"
    INDEX 01 00:55:42
  TRACK 44 AUDIO
    TITLE "4:cjc157_1105"
    INDEX 01 00:56:10
  TRACK 45 AUDIO
    TITLE "0:"
    INDEX 01 01:01:11
  TRACK 46 AUDIO
    TITLE "5:cjc157_1106"
    INDEX 01 01:01:56
  TRACK 47 AUDIO
    TITLE "0:"
    INDEX 01 01:04:54
  TRACK 48 AUDIO
    TITLE "5:cjc157_1107"
    INDEX 01 01:05:26
  TRACK 49 AUDIO
    TITLE "0:"
    INDEX 01 01:07:29
  TRACK 50 AUDIO
    TITLE "5:cjc157_1108"
    INDEX 01 01:08:03
  TRACK 51 AUDIO
    TITLE "0:"
    INDEX 01 01:10:00
  TRACK 52 AUDIO
    TITLE "5:cjc157_1109"
    INDEX 01 01:10:47
  TRACK 53 AUDIO
    TITLE "0:"
    INDEX 01 01:13:42
  TRACK 54 AUDIO
    TITLE "5:cjc157_1110"
    INDEX 01 01:14:08
  TRACK 55 AUDIO
    TITLE "0:"
    INDEX 01 01:16:30
  TRACK 56 AUDIO
    TITLE "3:cjc157_1111"
    INDEX 01 01:17:00
  TRACK 57 AUDIO
    TITLE "0:"
    INDEX 01 01:18:35
  TRACK 58 AUDIO
    TITLE "4:cjc157_1112"
    INDEX 01 01:19:07
  TRACK 59 AUDIO
    TITLE "0:"
    INDEX 01 01:20:18
  TRACK 60 AUDIO
    TITLE "5:cjc157_1113"
    INDEX 01 01:20:67
  TRACK 61 AUDIO
    TITLE "0:"
    INDEX 01 01:23:36
  TRACK 62 AUDIO
    TITLE "5:cjc157_1114"
    INDEX 01 01:24:12
  TRACK 63 AUDIO
    TITLE "0:"
    INDEX 01 01:26:17
  TRACK 64 AUDIO
    TITLE "3:cjc157_1115"
    INDEX 01 01:26:62
  TRACK 65 AUDIO
    TITLE "0:"
    INDEX 01 01:28:33
  TRACK 66 AUDIO
    TITLE "4:cjc157_1116"
    INDEX 01 01:29:03
  TRACK 67 AUDIO
    TITLE "0:"
    INDEX 01 01:30:15
  TRACK 68 AUDIO
    TITLE "5:cjc157_1117"
    INDEX 01 01:30:62
  TRACK 69 AUDIO
    TITLE "0:"
    INDEX 01 01:33:56
  TRACK 70 AUDIO
    TITLE "5:cjc157_1118"
    INDEX 01 01:34:24
  TRACK 71 AUDIO
    TITLE "0:"
    INDEX 01 01:37:60
  TRACK 72 AUDIO
    TITLE "3:cjc157_1119"
    INDEX 01 01:38:30
  TRACK 73 AUDIO
    TITLE "0:"
    INDEX 01 01:39:72
  TRACK 74 AUDIO
    TITLE "4:cjc157_1120"
    INDEX 01 01:40:44
  TRACK 75 AUDIO
    TITLE "0:"
    INDEX 01 01:45:14
  TRACK 76 AUDIO
    TITLE "5:cjc157_1121"
    INDEX 01 01:45:63
  TRACK 77 AUDIO
    TITLE "0:"
    INDEX 01 01:48:03
  TRACK 78 AUDIO
    TITLE "5:cjc157_1122"
    INDEX 01 01:48:48
  TRACK 79 AUDIO
    TITLE "0:"
    INDEX 01 01:50:37
  TRACK 80 AUDIO
    TITLE "5:cjc157_1123"
    INDEX 01 01:51:03
  TRACK 81 AUDIO
    TITLE "0:"
    INDEX 01 01:53:45
  TRACK 82 AUDIO
    TITLE "5:cjc157_1124"
    INDEX 01 01:54:13
  TRACK 83 AUDIO
    TITLE "0:"
    INDEX 01 01:56:18
  TRACK 84 AUDIO
    TITLE "3:cjc157_1125"
    INDEX 01 01:56:61
  TRACK 85 AUDIO
    TITLE "0:"
    INDEX 01 01:58:23
  TRACK 86 AUDIO
    TITLE "4:cjc157_1126"
    INDEX 01 01:58:66
  TRACK 87 AUDIO
    TITLE "0:"
    INDEX 01 02:00:04
  TRACK 88 AUDIO
    TITLE "5:cjc157_1127"
    INDEX 01 02:00:45
  TRACK 89 AUDIO
    TITLE "0:"
    INDEX 01 02:05:19
